<svg xmlns="http://www.w3.org/2000/svg" width="1361" height="1482" viewBox="0 0 1361 1482" fill="none"><g filter="url(#filter0_f_304_1118)"><path d="M1389 310.883C1120.2 222.083 1017.67 437.883 1000 556.883C1033.67 556.883 1134.2 570.083 1267 622.883C1433 688.883 811 967 823 1151C835 1335 1663 827.883 1667 823.883C1671 819.883 1725 421.883 1389 310.883Z" fill="#B414FF"></path></g><g filter="url(#filter1_f_304_1118)"><path d="M323 916C164.056 976.496 882.738 871.409 963.034 910.188C963.034 917.217 964.781 940 971.768 974.901C980.501 1018.53 1146.43 1099.96 1201.01 997.441C1255.6 894.919 1152.25 833.114 1160.26 725.502C1168.26 617.89 521.679 840.38 323 916Z" fill="#33E7FF"></path></g><defs><filter id="filter0_f_304_1118" x="532.828" y="0" width="1429.7" height="1481.2" filterUnits="userSpaceOnUse" color-interpolation-filters="sRGB"><feGaussianBlur stdDeviation="145"></feGaussianBlur></filter><filter id="filter1_f_304_1118" x="0.127594" y="396.64" width="1516.87" height="950.359" filterUnits="userSpaceOnUse" color-interpolation-filters="sRGB"><feGaussianBlur stdDeviation="150"></feGaussianBlur></filter></defs></svg>